<svg version="1.0" xmlns="http://www.w3.org/2000/svg" viewBox="0 0 110 110" xml:space="preserve" enable-background="new 0 0 110 110"><circle cx="55" cy="55" r="55" fill="#5b5c5f"></circle><path d="M23 26.84A3.84 3.84 0 0 1 26.84 23H55l16 13.44v46.72A3.84 3.84 0 0 1 67.16 87H26.84A3.84 3.84 0 0 1 23 83.16V26.84z" fill="#ffffff"></path><path d="M55 23v9.6a3.84 3.84 0 0 0 3.84 3.84H71L55 23z" fill="#f0f1f1"></path><path d="M77 41.5 82 31l5 10.5V80H77z" fill="#f4d0a1"></path><path d="M87 47v-5.5L82 31v16z" fill="#edbc7c"></path><path d="M87 84a3 3 0 0 1-3 3h-4a3 3 0 0 1-3-3v-2h10v2z" fill="#f79392"></path><path d="M62 45c0 .55-.45 1-1 1H46c-.55 0-1-.45-1-1s.45-1 1-1h15c.55 0 1 .45 1 1zm-6 5c0 .55-.45 1-1 1h-9c-.55 0-1-.45-1-1s.45-1 1-1h9c.55 0 1 .45 1 1zm6 8c0 .55-.45 1-1 1H46c-.55 0-1-.45-1-1s.45-1 1-1h15c.55 0 1 .45 1 1zm-6 5c0 .55-.45 1-1 1h-9c-.55 0-1-.45-1-1s.45-1 1-1h9c.55 0 1 .45 1 1zm6 8c0 .55-.45 1-1 1H46c-.55 0-1-.45-1-1s.45-1 1-1h15c.55 0 1 .45 1 1zm-6 5c0 .55-.45 1-1 1h-9c-.55 0-1-.45-1-1s.45-1 1-1h9c.55 0 1 .45 1 1z" fill="#e2e4e5"></path><path d="m35.067 52-3.774-3.774a.999.999 0 1 1 1.414-1.414l2.226 2.226 4.299-5.159a.999.999 0 1 1 1.536 1.28L35.067 52zm0 13-3.774-3.774a.999.999 0 1 1 1.414-1.414l2.226 2.226 4.299-5.159a.999.999 0 1 1 1.536 1.28L35.067 65zm0 13-3.774-3.774a.999.999 0 1 1 1.414-1.414l2.226 2.226 4.299-5.159a.999.999 0 1 1 1.536 1.28L35.067 78z" fill="#17b198"></path><path d="M77 79h10v3H77z" fill="#facb1b"></path><path d="M77 80h5v2h-5z" fill="#fbe158"></path><path d="m82.013 30.984-1.857 3.899c.512.678 1.152 1.101 1.857 1.101s1.345-.422 1.857-1.101l-1.857-3.899z" fill="#3e3e3f"></path><path d="M84.5 43a2.5 2.5 0 0 1-2.413-1.845c-.026-.097-.147-.097-.173 0a2.502 2.502 0 0 1-4.736.274.092.092 0 0 0-.178.035V80h10V41.464a.092.092 0 0 0-.178-.034A2.502 2.502 0 0 1 84.5 43z" fill="#0484ab"></path><path d="M77 80V41.493c0-.111.147-.139.19-.036a2.5 2.5 0 0 0 4.727-.316c.014-.052.083-.045.083.009V80h-5z" fill="#21b2d1"></path><path d="M77 82v2a3 3 0 0 0 3 3h2v-5h-5z" fill="#f7b4b4"></path></svg>