<svg version="1.0" xmlns="http://www.w3.org/2000/svg" viewBox="0 0 110 110" xml:space="preserve" enable-background="new 0 0 110 110"><circle cx="55" cy="55" r="55" fill="#5b5c5f"></circle><circle cx="55" cy="55" r="32" fill="#f0f1f1"></circle><path d="M23 55c0 17.673 14.327 32 32 32V23c-17.673 0-32 14.327-32 32z" fill="#ffffff"></path><path d="M51.13 43.64C46.4 45.25 43 49.73 43 55H31c0-9.85 5.97-18.34 14.48-22.03l5.65 10.67z" fill="#fa5655"></path><path d="M79 55H67c0-6.62-5.38-12-12-12-1.35 0-2.66.22-3.87.64l-5.65-10.67A23.81 23.81 0 0 1 55 31c13.23 0 24 10.77 24 24z" fill="#facb1b"></path><path d="M55 31c-3.38 0-6.6.7-9.52 1.97l5.65 10.67c1.21-.42 2.52-.64 3.87-.64 3.943 0 7.435 1.917 9.623 4.859l9.471-7.374C69.705 34.727 62.779 31 55 31z" fill="#fbe158"></path><path d="M58.2 57.4a4 4 0 0 1-6.4-4.8c1.325-1.767 14-12 14-12s-6.275 15.033-7.6 16.8z" fill="#3e3e3f"></path><path d="M56 80c0 .55-.45 1-1 1s-1-.45-1-1v-6c0-.55.45-1 1-1s1 .45 1 1v6zm19-15c.55 0 1 .45 1 1s-.45 1-1 1h-6c-.55 0-1-.45-1-1s.45-1 1-1h6zm-41 0c-.55 0-1 .45-1 1s.45 1 1 1h6c.55 0 1-.45 1-1s-.45-1-1-1h-6zm7.316 10.937c-.31.454-.192 1.08.262 1.39.454.31 1.08.192 1.39-.262l3.384-4.955c.31-.454.192-1.08-.262-1.39a1.004 1.004 0 0 0-1.39.262l-3.384 4.955zm27.368 0c.31.454.192 1.08-.262 1.39-.454.31-1.08.192-1.39-.262l-3.384-4.955a1.004 1.004 0 0 1 .262-1.39 1.004 1.004 0 0 1 1.39.262l3.384 4.955z" fill="#b6bcbd"></path></svg>