<svg version="1.0" xmlns="http://www.w3.org/2000/svg" viewBox="0 0 110 110" xml:space="preserve" enable-background="new 0 0 110 110"><circle cx="55" cy="55" r="55" fill="#25b7d3"></circle><path d="M65 85a2 2 0 0 1-2 2H47a2 2 0 0 1-2-2V57a2 2 0 0 1 2-2h16a2 2 0 0 1 2 2v28zm22 0a2 2 0 0 1-2 2H69a2 2 0 0 1-2-2V57a2 2 0 0 1 2-2h16a2 2 0 0 1 2 2v28zm-44 0a2 2 0 0 1-2 2H25a2 2 0 0 1-2-2V57a2 2 0 0 1 2-2h16a2 2 0 0 1 2 2v28z" fill="#3e3e3f"></path><circle cx="38.5" cy="59.5" r="1.5" fill="#fa5655"></circle><circle cx="33.5" cy="59.5" r="1.5" fill="#f99134"></circle><circle cx="28.5" cy="59.5" r="1.5" fill="#facb1b"></circle><path d="M76 41.562c0-3.954-2.442-7.332-5.898-8.723-2.738-6.696-7.162-9.417-12.579-9.417a13.086 13.086 0 0 0-11.67 7.147c-3.443-1.466-7.325.969-7.468 4.74C35.251 36.414 33 39.393 33 42.906a8.062 8.062 0 0 0 8.062 8.062h26.875c0 .001 8.063-1.495 8.063-9.406z" fill="#f0f1f1"></path><path d="M57.523 23.422a13.086 13.086 0 0 0-11.67 7.147c-3.443-1.466-7.325.969-7.468 4.74C35.251 36.414 33 39.393 33 42.906c0 4.228 3.257 7.69 7.398 8.029l24.923-24.924c-2.238-1.786-4.871-2.589-7.798-2.589z" fill="#ffffff"></path><circle cx="60.5" cy="59.5" r="1.5" fill="#fa5655"></circle><circle cx="55.5" cy="59.5" r="1.5" fill="#f99134"></circle><circle cx="50.5" cy="59.5" r="1.5" fill="#facb1b"></circle><circle cx="82.5" cy="59.5" r="1.5" fill="#fa5655"></circle><circle cx="77.5" cy="59.5" r="1.5" fill="#f99134"></circle><circle cx="72.5" cy="59.5" r="1.5" fill="#facb1b"></circle><path d="M23 80h20v2H23zm0-5h20v2H23zm0-5h20v2H23zm0-5h20v2H23zm22 15h20v2H45zm0-5h20v2H45zm0-5h20v2H45zm0-5h20v2H45zm22 15h20v2H67zm0-5h20v2H67zm0-5h20v2H67zm0-5h20v2H67z" fill="#818284"></path></svg>