<svg version="1.0" xmlns="http://www.w3.org/2000/svg" viewBox="0 0 110 110" xml:space="preserve" enable-background="new 0 0 110 110"><circle cx="55" cy="55" r="55" fill="#ffc800"></circle><path d="M31 26.84A3.84 3.84 0 0 1 34.84 23H63l16 13.44v46.72A3.84 3.84 0 0 1 75.16 87H34.84A3.84 3.84 0 0 1 31 83.16V26.84z" fill="#ffffff"></path><path d="M63 23v9.6a3.84 3.84 0 0 0 3.84 3.84H79" fill="#e2e4e5"></path><path d="M43 54.567h7V74h-7z" fill="#40c9e7"></path><path d="M54 43h7v31h-7z" fill="#ff9638"></path><path d="M65 62.4h7V74h-7z" fill="#47c4b7"></path><path d="M39 77V43h-2v36h36v-2z" fill="#e2e4e5"></path></svg>