<svg xmlns="http://www.w3.org/2000/svg" viewBox="0 0 64 64"><defs></defs><g id="Presentation"><rect x="1" y="1" width="52" height="39" rx="2" stroke-linecap="round" stroke-linejoin="round" stroke="#000000" fill="#d6dcdc"></rect><path d="M3,1H51a2,2,0,0,1,2,2V5a0,0,0,0,1,0,0H1A0,0,0,0,1,1,5V3A2,2,0,0,1,3,1Z" fill="#f4651d" stroke-linecap="round" stroke-linejoin="round" stroke="#000000"></path><rect x="5" y="1" width="48" height="39" rx="2" fill="#ffffff" stroke-linecap="round" stroke-linejoin="round" stroke="#000000"></rect><rect x="35" y="11" width="12" height="1" stroke="#d6dcdc" stroke-linecap="round" stroke-linejoin="round" fill="#d6dcdc"></rect><circle cx="20" cy="22.5" r="10" stroke="#d6dcdc" stroke-linecap="round" stroke-linejoin="round" fill="#d6dcdc"></circle><circle cx="20" cy="22.5" r="4" stroke="#ffffff" fill="none" stroke-linecap="round" stroke-linejoin="round"></circle><line x1="20" y1="18.5" x2="20" y2="11.5" stroke="#ffffff" fill="none" stroke-linecap="round" stroke-linejoin="round"></line><line x1="16" y1="22.5" x2="9" y2="22.5" stroke="#ffffff" fill="none" stroke-linecap="round" stroke-linejoin="round"></line><line x1="22.82843" y1="25.32843" x2="27.5" y2="30" stroke="#ffffff" fill="none" stroke-linecap="round" stroke-linejoin="round"></line><rect x="35" y="16" width="2" height="2" stroke="#d6dcdc" stroke-linecap="round" stroke-linejoin="round" fill="#d6dcdc"></rect><line x1="40" y1="16" x2="47" y2="16" fill="none" stroke="#d6dcdc" stroke-linecap="round" stroke-linejoin="round"></line><line x1="40" y1="18" x2="44" y2="18" fill="none" stroke="#d6dcdc" stroke-linecap="round" stroke-linejoin="round"></line><rect x="35" y="26" width="2" height="2" stroke="#d6dcdc" stroke-linecap="round" stroke-linejoin="round" fill="#d6dcdc"></rect><line x1="40" y1="26" x2="47" y2="26" fill="none" stroke="#d6dcdc" stroke-linecap="round" stroke-linejoin="round"></line><line x1="40" y1="28" x2="44" y2="28" fill="none" stroke="#d6dcdc" stroke-linecap="round" stroke-linejoin="round"></line><rect x="35" y="21" width="2" height="2" stroke="#d6dcdc" stroke-linecap="round" stroke-linejoin="round" fill="#d6dcdc"></rect><line x1="40" y1="21" x2="47" y2="21" fill="none" stroke="#d6dcdc" stroke-linecap="round" stroke-linejoin="round"></line><line x1="40" y1="23" x2="44" y2="23" fill="none" stroke="#d6dcdc" stroke-linecap="round" stroke-linejoin="round"></line><path d="M7,1H51a2,2,0,0,1,2,2V5a0,0,0,0,1,0,0H5A0,0,0,0,1,5,5V3A2,2,0,0,1,7,1Z" fill="#f4651d" stroke-linecap="round" stroke-linejoin="round" stroke="#000000"></path><line x1="7.5" y1="3" x2="8.5" y2="3" fill="#ffffff" stroke-linecap="round" stroke-linejoin="round" stroke="#000000"></line><line x1="10.5" y1="3" x2="11.5" y2="3" fill="#ffffff" stroke-linecap="round" stroke-linejoin="round" stroke="#000000"></line><line x1="13.5" y1="3" x2="14.5" y2="3" fill="#ffffff" stroke-linecap="round" stroke-linejoin="round" stroke="#000000"></line><circle cx="51" cy="29" r="8" fill="#e4ac4d" stroke-linecap="round" stroke-linejoin="round" stroke="#000000"></circle><circle cx="55.5" cy="31.5" r="1" fill="#e4ac4d"></circle><circle cx="46.5" cy="31.5" r="1" fill="#e4ac4d"></circle><path d="M53,33a2.5,2.5,0,0,1-4,0" fill="none" stroke-linecap="round" stroke-linejoin="round" stroke="#000000"></path><line x1="48" y1="29" x2="48" y2="30" fill="none" stroke-linecap="round" stroke-linejoin="round" stroke="#000000"></line><line x1="54" y1="30" x2="54" y2="29" fill="none" stroke-linecap="round" stroke-linejoin="round" stroke="#000000"></line><path d="M43,37H55a8,8,0,0,1,8,8v4a4,4,0,0,1-4,4v4H43V43H32V37Z" fill="#f4651d" stroke-linecap="round" stroke-linejoin="round" stroke="#000000"></path><polygon points="57 41 55 37 54 37 52 51 56 46 55 44 57 41" fill="#ff991f" stroke-linecap="round" stroke-linejoin="round" stroke="#000000"></polygon><polygon points="45 41 47 37 48 37 50 51 46 46 47 44 45 41" fill="#ff991f" stroke-linecap="round" stroke-linejoin="round" stroke="#000000"></polygon><polygon points="52 51 54 37 48 37 50 51 50 57 52 57 52 51" fill="#fcdeca" stroke-linecap="round" stroke-linejoin="round" stroke="#000000"></polygon><path d="M53,37c0,3.31371-.89543,6-2,6s-2-2.68629-2-6" fill="none" stroke-linecap="round" stroke-linejoin="round" stroke="#000000"></path><path d="M53,37a2,2,0,0,1-4,0Z" fill="#e4ac4d" stroke-linecap="round" stroke-linejoin="round" stroke="#000000"></path><path d="M28,37h1a3,3,0,0,1,3,3v0a3,3,0,0,1-3,3H28a0,0,0,0,1,0,0V37a0,0,0,0,1,0,0Z" transform="translate(60 79.99999) rotate(180)" fill="#e4ac4d" stroke-linecap="round" stroke-linejoin="round" stroke="#000000"></path><path d="M48,47h1a3,3,0,0,1,3,3v0a3,3,0,0,1-3,3H48a0,0,0,0,1,0,0V47A0,0,0,0,1,48,47Z" transform="translate(100 99.99999) rotate(180)" fill="#e4ac4d" stroke-linecap="round" stroke-linejoin="round" stroke="#000000"></path><path d="M58,43v4H52v6h7a4,4,0,0,0,4-4V45" fill="#f4651d" stroke-linecap="round" stroke-linejoin="round" stroke="#000000"></path><line x1="55" y1="55" x2="59" y2="55" fill="none" stroke-linecap="round" stroke-linejoin="round" stroke="#000000"></line><line x1="43" y1="55" x2="47" y2="55" fill="none" stroke-linecap="round" stroke-linejoin="round" stroke="#000000"></line><path d="M60,20.5c0,.38032-.5508.68315-.6446,1.03389-.097.36269.22569.89965.04191,1.21719-.1864.32206-.81446.30964-1.07589.571s-.249.88933-.57108,1.07564c-.31754.18371-.85441-.13909-1.21709-.04216C56.18272,24.44926,55.88008,25,55.5,25c-.38032,0-.68315-.5508-1.03389-.6446-.36269-.097-.89965.22569-1.21719.04191-.32206-.1864-.30964-.81446-.571-1.07589-.26132-.26138-.88933-.249-1.07564-.57108-.18371-.31754.13909-.85441.04216-1.21709C51.55074,21.18272,51,20.88008,51,20.5c0-.38032.5508-.68315.6446-1.03389.097-.36269-.22569-.89965-.04191-1.21719.1864-.32206.81446-.30964,1.07589-.571s.249-.88933.57108-1.07564c.31754-.18371.85441.13909,1.21709.04216C54.81728,16.55074,55.11992,16,55.5,16c.38032,0,.68315.5508,1.03389.6446.36269.097.89965-.22569,1.21719-.04191.32206.1864.30964.81446.571,1.07589.26132.26138.88933.249,1.07564.57108.18371.31754-.13909.85441-.04216,1.21709C59.44926,19.81728,60,20.11992,60,20.5Z" fill="#e4ac4d" stroke-linecap="round" stroke-linejoin="round" stroke="#000000"></path><path d="M59.99762,28.95526a9.02066,9.02066,0,0,0-.13464-.97656c-.07148-.34509.219-.78723.11383-1.11817-.10657-.33514-.59638-.51879-.73548-.83746-.14019-.32117.05329-.81586-.11792-1.11816-.17212-.304-.6886-.37921-.89-.662-.20209-.28369-.11328-.80878-.34265-1.069-.22968-.26044-.75019-.22491-1.00507-.45966-.25464-.23443-.27411-.767-.55176-.97357-.27691-.20587-.77893-.06128-1.0766-.2373-.29608-.175-.4234-.692-.738-.83539-.31207-.14215-.77356.10614-1.10181-.00269-.32446-.10772-.55493-.58606-.89325-.65924a.92177.92177,0,0,0-.30719.02184.94563.94563,0,0,1-.68657-.13741.81487.81487,0,0,0-1.06109-.00013.946.946,0,0,1-.68655.13747.92081.92081,0,0,0-.30688-.02177c-.33831.07318-.56878.55152-.89325.65924-.32824.10883-.78973-.13946-1.1018.00269-.31458.14337-.4419.6604-.738.83539-.29767.176-.79968.03143-1.0766.2373-.27765.20655-.29712.73914-.55176.97357-.25488.23475-.77539.19922-1.00506.45966-.22937.26019-.14057.78528-.34265,1.069-.20142.28278-.7179.358-.89.662-.1712.3023.02228.797-.11792,1.11816-.1391.31867-.6289.50232-.73547.83746-.10517.33094.1853.77308.11383,1.11817a9.01823,9.01823,0,0,0-.13471.97656.81081.81081,0,0,0,.06751.36871,1.05505,1.05505,0,0,0,.53393.5774.76607.76607,0,0,0,.39618.09619c.34461-.03662.64551-.48761.97864-.55963.33771-.073.77045.22375,1.09442.11633.32819-.10889.50788-.60925.81983-.75134.31445-.14325.79864.05438,1.0946-.12055.29761-.1759.37116-.70337.648-.90918.27777-.20642.79169-.11578,1.04633-.35009.255-.23462.22027-.7663.45007-1.02668.22943-.26019.75079-.28.95294-.56378.2016-.28284.06-.79559.2323-1.09967.13587-.23987.47528-.37494.6828-.57928.20752.20434.54694.33941.6828.57928.1723.30408.0307.81683.2323,1.09967.20215.28375.72351.30359.95294.56378.2298.26038.19507.79206.45008,1.02668.25464.23431.76855.14367,1.04632.35009.2768.20581.35034.73328.648.90918.296.17493.78015-.0227,1.09461.12055.31195.14209.49163.64245.81982.75134.324.10742.75671-.18933,1.09442-.11633.33313.072.634.523.97864.55963a.76594.76594,0,0,0,.39618-.09619,1.05481,1.05481,0,0,0,.53393-.5774A.80988.80988,0,0,0,59.99762,28.95526Z" fill="#e4ac4d" stroke-linecap="round" stroke-linejoin="round" stroke="#000000"></path><rect x="52" y="47" width="2" height="6" fill="#ff991f" stroke-linecap="round" stroke-linejoin="round" stroke="#000000"></rect><rect x="32" y="37" width="2" height="6" fill="#ff991f" stroke-linecap="round" stroke-linejoin="round" stroke="#000000"></rect><line x1="30" y1="40" x2="22" y2="31" fill="none" stroke-linecap="round" stroke-linejoin="round" stroke="#000000"></line><path d="M3,57H61a2,2,0,0,1,2,2v4a0,0,0,0,1,0,0H1a0,0,0,0,1,0,0V59A2,2,0,0,1,3,57Z" fill="#b3b3b3" stroke-linecap="round" stroke-linejoin="round" stroke="#000000"></path><path d="M11,57H61a2,2,0,0,1,2,2v4a0,0,0,0,1,0,0H9a0,0,0,0,1,0,0V59A2,2,0,0,1,11,57Z" fill="#f4f4f4" stroke-linecap="round" stroke-linejoin="round" stroke="#000000"></path><path d="M40,57H24l-1.76078-8.80388A1,1,0,0,1,23.2198,47H36.77029a1.5,1.5,0,0,1,1.47088,1.20583Z" fill="#ffc700" stroke-linecap="round" stroke-linejoin="round" stroke="#000000"></path><circle cx="31" cy="52" r="1" fill="#ff991f" stroke="#ff991f" stroke-linecap="round" stroke-linejoin="round"></circle><path d="M6,54H20.5a0,0,0,0,1,0,0v3a0,0,0,0,1,0,0H6a1,1,0,0,1-1-1V55A1,1,0,0,1,6,54Z" fill="#21ce62" stroke-linecap="round" stroke-linejoin="round" stroke="#000000"></path><path d="M14,54h6.5a0,0,0,0,1,0,0v3a0,0,0,0,1,0,0H14a1,1,0,0,1-1-1V55A1,1,0,0,1,14,54Z" fill="#ffffff" stroke-linecap="round" stroke-linejoin="round" stroke="#000000"></path><line x1="20.5" y1="54" x2="21" y2="54" fill="none" stroke-linecap="round" stroke-linejoin="round" stroke="#000000"></line><line x1="21" y1="57" x2="20.5" y2="57" fill="none" stroke-linecap="round" stroke-linejoin="round" stroke="#000000"></line><rect x="9" y="61" width="54" height="2" fill="#35ddff" stroke-linecap="round" stroke-linejoin="round" stroke="#000000"></rect><rect x="1" y="61" width="8" height="2" transform="translate(10 124) rotate(180)" fill="#1e9dde" stroke-linecap="round" stroke-linejoin="round" stroke="#000000"></rect></g></svg>