<svg viewBox="0 0 100 100" xmlns="http://www.w3.org/2000/svg"><path d="M10.000 51.345 A40.000 40.000 0 1 0 90.000 51.345 A40.000 40.000 0 1 0 10.000 51.345 Z" fill="#f5f5f5" stroke="#f5f5f5"></path><path d="M17.421 82.617 A31.95 1.997 0 1 0 81.321 82.617 A31.95 1.997 0 1 0 17.421 82.617 Z" fill="#000000" opacity=".15"></path><path d="M44.046,44.676a12.647,12.647,0,0,0-25.294,0v2H22.08l0,9.984h17.3l.006-9.984h4.654Z" fill="#f5f5f5"></path><path d="M31.4,32.029A12.647,12.647,0,0,0,18.752,44.676v2h.173a12.63,12.63,0,0,1,24.948,0h.173v-2A12.647,12.647,0,0,0,31.4,32.029Z" fill="#ffffff"></path><path d="M44.046,44.676a12.647,12.647,0,0,0-25.294,0v2H22.08l0,9.984h17.3l.006-9.984h4.654Z" fill="none" stroke="#000000" stroke-linecap="round" stroke-linejoin="round"></path><path d="M34.423,32.4a1,1,0,0,1-.763-.973l0-3.569h-5.79l0,3.94a1,1,0,0,1-.67.942q-.273.1-.54.2l4.074,6.4,4.22-6.63.094-.147Q34.738,32.48,34.423,32.4Z" fill="#dea47a" stroke="#000000" stroke-linecap="round" stroke-linejoin="round"></path><path d="M30.733,12.391a7.988,7.988,0,0,1,7.988,7.988v1.065a1.631,1.631,0,0,1-.168,3.228,7.988,7.988,0,0,1-15.807-1.631V20.379A7.987,7.987,0,0,1,30.733,12.391Z" fill="#dea47a" stroke="#000000" stroke-linecap="round" stroke-linejoin="round"></path><path d="M22.08,56.657V77.348a4.063,4.063,0,0,1,.666-.056h5.325L28.6,64.718a2.138,2.138,0,0,1,4.274,0l.4,12.652a4.039,4.039,0,0,1,.79-.078h5.325V56.657Z" fill="#00b8f0"></path><path d="M22.08 56.657H39.385999999999996V59.985H22.08z" fill="#00b8f0"></path><path d="M22.08,56.657V77.348a4.063,4.063,0,0,1,.666-.056h5.325L28.6,64.718a2.138,2.138,0,0,1,4.274,0l.4,12.652a4.039,4.039,0,0,1,.79-.078h5.325V56.657Z" fill="none" stroke="#000000" stroke-linecap="round" stroke-linejoin="round"></path><path d="M31.732,20.379a1,1,0,1,0,1,1,1,1,0,0,0-1-1Z" fill="#000000"></path><path d="M26.407,20.379a1,1,0,1,0,1,1,1,1,0,0,0-1-1Z" fill="#000000"></path><path d="M33.396 24.040 A0.998 0.998 0 1 0 35.392 24.040 A0.998 0.998 0 1 0 33.396 24.040 Z" fill="#bf8256"></path><path d="M31.4,26.43a3.6,3.6,0,0,1-3.994,0" fill="none" stroke="#000000" stroke-linecap="round" stroke-linejoin="round"></path><path d="M22.08,18.382a8.653,8.653,0,0,1,17.306,0v2.663a6.874,6.874,0,0,1-4.659-3.994C31,19.561,26.074,19.048,22.08,18.382Z" fill="#6d4a31"></path><path d="M30.733,13.057a8.649,8.649,0,0,0-8.023,5.422c-.209-.033-.425-.063-.63-.1a8.653,8.653,0,0,1,17.306,0v2.663l-.033-.012A8.65,8.65,0,0,0,30.733,13.057Z" fill="#dea47a"></path><path d="M22.08,18.382a8.653,8.653,0,0,1,17.306,0v2.663a6.874,6.874,0,0,1-4.659-3.994C31,19.561,26.074,19.048,22.08,18.382Z" fill="none" stroke="#000000" stroke-linecap="round" stroke-linejoin="round"></path><path d="M36.058,15.719a4.262,4.262,0,0,1-1.331,1.332" fill="none" stroke="#000000" stroke-linecap="round" stroke-linejoin="round"></path><path d="M39.386 46.673L39.386 42.679" fill="none" stroke="#000000" stroke-linecap="round" stroke-linejoin="round"></path><path d="M22.08 46.673L22.08 42.679" fill="none" stroke="#000000" stroke-linecap="round" stroke-linejoin="round"></path><path d="M18.752,81.286a3.994,3.994,0,0,1,3.994-3.994h5.325v2.663a1.331,1.331,0,0,1-1.332,1.331Z" fill="#bf8256" stroke="#000000" stroke-linecap="round" stroke-linejoin="round"></path><path d="M30.068,81.286a3.994,3.994,0,0,1,3.993-3.994h5.325v2.663a1.331,1.331,0,0,1-1.331,1.331Z" fill="#bf8256" stroke="#000000" stroke-linecap="round" stroke-linejoin="round"></path><path d="M36.537,33.107a7.534,7.534,0,0,1,1.518,3.581,12.43,12.43,0,0,0-7.322,2.663" fill="none" stroke="#000000" stroke-linecap="round" stroke-linejoin="round"></path><path d="M30.733,39.351a12.43,12.43,0,0,0-7.322-2.663,7.215,7.215,0,0,1,.772-2.409" fill="none" stroke="#000000" stroke-linecap="round" stroke-linejoin="round"></path><path d="M30.733 39.351L30.733 56.657" fill="none" stroke="#000000" stroke-linecap="round" stroke-linejoin="round"></path><path d="M31.515,54.225,22.279,55.84a1.33,1.33,0,0,1-1.506-.933L17.281,43.134a1.331,1.331,0,0,1,.766-1.607l8.656-3.6a1.331,1.331,0,0,1,1.788.852l4.071,13.761A1.332,1.332,0,0,1,31.515,54.225Z" fill="#f5f5f5"></path><path d="M18.313,43.7l9.226-3.771a1.43,1.43,0,0,1,1.336.143l-.384-1.3a1.331,1.331,0,0,0-1.788-.852l-8.656,3.6a1.332,1.332,0,0,0-.766,1.607l.346,1.166A1.425,1.425,0,0,1,18.313,43.7Z" fill="#ffffff"></path><path d="M31.515,54.225,22.279,55.84a1.33,1.33,0,0,1-1.506-.933L17.281,43.134a1.331,1.331,0,0,1,.766-1.607l8.656-3.6a1.331,1.331,0,0,1,1.788.852l4.071,13.761A1.332,1.332,0,0,1,31.515,54.225Z" fill="none" stroke="#000000" stroke-linecap="round" stroke-linejoin="round"></path><path d="M39.386,46.673v1.065a4.26,4.26,0,0,1-7.272,3.012l-1.065-1.065a2.33,2.33,0,0,0-3.294,0,2.332,2.332,0,0,0,0,3.295l1.065,1.064a8.919,8.919,0,0,0,15.226-6.306V46.673Z" fill="#dea47a" stroke="#000000" stroke-linecap="round" stroke-linejoin="round"></path><path d="M20.359,51.268a2.33,2.33,0,1,0-1.112-4.525l-.969.238a1.333,1.333,0,0,0-.976,1.611l.476,1.939a1.332,1.332,0,0,0,1.611.975Z" fill="#dea47a" stroke="#000000" stroke-linecap="round" stroke-linejoin="round"></path><path d="M20.749,42.679a.666.666,0,1,0,.665.666.666.666,0,0,0-.665-.666Z" fill="#000000"></path><path d="M79.99,43.345a11.316,11.316,0,1,0-22.632,0v2.329H62.02l0,10.983H76.662V47.339H79.99Z" fill="#f5f5f5"></path><path d="M62.018 51.332H62.019V56.657000000000004H62.018z" fill="#ffffff"></path><path d="M68.674,32.029A11.316,11.316,0,0,0,57.358,43.345v3.994a11.316,11.316,0,1,1,22.632,0V43.345A11.316,11.316,0,0,0,68.674,32.029Z" fill="#ffffff"></path><path d="M79.99,43.345a11.316,11.316,0,1,0-22.632,0v2.329H62.02l0,10.983H76.662V47.339H79.99Z" fill="none" stroke="#000000" stroke-linecap="round" stroke-linejoin="round"></path><path d="M74.234 77.292L74.665 69.97 64.015 69.97 64.446 77.292 74.234 77.292z" fill="#ffda8f"></path><path d="M74.469 73.298L74.665 69.97 64.015 69.97 64.211 73.298 74.469 73.298z" fill="#ffbe3d"></path><path d="M74.234 77.292L74.665 69.97 64.015 69.97 64.446 77.292 74.234 77.292z" fill="none" stroke="#000000" stroke-linecap="round" stroke-linejoin="round"></path><path d="M69.34 69.97L69.34 77.292" fill="none" stroke="#000000" stroke-linecap="round" stroke-linejoin="round"></path><path d="M74.681,69.97a1.331,1.331,0,0,0,1.329-1.259l.652-12.054H62.018l.651,12.054A1.332,1.332,0,0,0,64,69.97Z" fill="#00b8f0"></path><path d="M76.482 59.986L76.662 56.657 62.018 56.657 62.198 59.986 76.482 59.986z" fill="#00b8f0"></path><path d="M74.681,69.97a1.331,1.331,0,0,0,1.329-1.259l.652-12.054H62.018l.651,12.054A1.332,1.332,0,0,0,64,69.97Z" fill="none" stroke="#000000" stroke-linecap="round" stroke-linejoin="round"></path><path d="M78.659,81.286a3.994,3.994,0,0,0-3.994-3.994H69.34v3.994Z" fill="#00b8f0" stroke="#000000" stroke-linecap="round" stroke-linejoin="round"></path><path d="M73.749,81.286a3.994,3.994,0,0,0-3.994-3.994H64.43v2.663a1.331,1.331,0,0,0,1.331,1.331Z" fill="#00b8f0" stroke="#000000" stroke-linecap="round" stroke-linejoin="round"></path><path d="M62.018 42.679L62.018 46.007" fill="none" stroke="#000000" stroke-linecap="round" stroke-linejoin="round"></path><path d="M76.635 35.304L76.662 35.357 74.665 36.688 75.331 38.685 69.34 43.345" fill="none" stroke="#000000" stroke-linecap="round" stroke-linejoin="round"></path><path d="M69.34 43.345L63.349 38.685 64.015 36.688 62.018 35.357 63.07 33.52" fill="none" stroke="#000000" stroke-linecap="round" stroke-linejoin="round"></path><path d="M66.892 36.688L69.34 43.345 71.789 36.688 66.892 36.688z" fill="#4acfff" stroke="#000000" stroke-linecap="round" stroke-linejoin="round"></path><path d="M69.34 43.345L69.34 56.657" fill="none" stroke="#000000" stroke-linecap="round" stroke-linejoin="round"></path><path d="M72.617,54.483l-4.394-2.366a1,1,0,0,1-.406-1.355l8.2-15.235a1,1,0,0,1,1.354-.406l4.394,2.366Z" fill="#6dd627" stroke="#000000" stroke-linecap="round" stroke-linejoin="round"></path><path d="M78.523,56.151a1.331,1.331,0,0,1-1.8.541l-4.1-2.209,9.152-17,4.1,2.209a1.331,1.331,0,0,1,.541,1.8Z" fill="#ff6242" stroke="#000000" stroke-linecap="round" stroke-linejoin="round"></path><path d="M77.4,38.291a1,1,0,0,0-.474,1.878.98.98,0,0,0,.472.12,1,1,0,1,0,0-2Z" fill="#000000"></path><path d="M82.672,41.131a1,1,0,1,0,.473.12,1,1,0,0,0-.473-.12Z" fill="#000000"></path><path d="M69.236 48.126L74.511 50.966" fill="none" stroke="#000000" stroke-linecap="round" stroke-linejoin="round"></path><path d="M74.511 50.966L79.786 53.806" fill="none" stroke="#000000" stroke-linecap="round" stroke-linejoin="round"></path><path d="M82.58,44.937a2.33,2.33,0,0,0-2.141,4.138l.887.459a1.332,1.332,0,0,0,1.794-.571l.918-1.773a1.331,1.331,0,0,0-.571-1.794Z" fill="#ffda8f" stroke="#000000" stroke-linecap="round" stroke-linejoin="round"></path><path d="M62.018,45.674v2a1.665,1.665,0,0,0,1.664,1.664h8.653a2.33,2.33,0,1,1,0,4.66H63.682a6.332,6.332,0,0,1-6.324-6.324v-2Z" fill="#ffda8f" stroke="#000000" stroke-linecap="round" stroke-linejoin="round"></path><path d="M72.411,32.673a1,1,0,0,1-.68-.949l0-2.358H66.842l0,1.994a1,1,0,0,1-.774.973q-.357.082-.707.189l1.533,4.167h4.9l1.372-3.729C72.916,32.854,72.666,32.759,72.411,32.673Z" fill="#ffda8f" stroke="#000000" stroke-linecap="round" stroke-linejoin="round"></path><path d="M56.693 13.055 A3.994 3.994 0 1 0 64.681 13.055 A3.994 3.994 0 1 0 56.693 13.055 Z" fill="#dea47a"></path><path d="M60.687,9.062a3.98,3.98,0,0,0-3.82,2.889,3.956,3.956,0,0,1,6.308,4.2,3.978,3.978,0,0,0-2.488-7.094Z" fill="#bf8256"></path><path d="M56.693 13.055 A3.994 3.994 0 1 0 64.681 13.055 A3.994 3.994 0 1 0 56.693 13.055 Z" fill="none" stroke="#000000" stroke-linecap="round" stroke-linejoin="round"></path><path d="M69.34,12.39a7.988,7.988,0,0,0-7.988,7.987v1.066a1.631,1.631,0,0,0,.168,3.228A7.988,7.988,0,0,0,77.327,23.04V20.377A7.986,7.986,0,0,0,69.34,12.39Z" fill="#ffda8f" stroke="#000000" stroke-linecap="round" stroke-linejoin="round"></path><path d="M64.681 24.038 A0.998 0.998 0 1 0 66.677 24.038 A0.998 0.998 0 1 0 64.681 24.038 Z" fill="#ffbe3d"></path><path d="M68.674,26.428a3.6,3.6,0,0,0,3.994,0" fill="none" stroke="#000000" stroke-linecap="round" stroke-linejoin="round"></path><path d="M61.352,21.443c2-1.731,2.663-5.725,2.663-5.725s4.659,3.328,13.312,4.659v2.114a9.315,9.315,0,1,0-17.24.181A1.64,1.64,0,0,1,61.352,21.443Z" fill="#dea47a"></path><path d="M68.674,12.757a9.314,9.314,0,0,1,9.185,7.8,9.192,9.192,0,0,0,.134-1.513,9.319,9.319,0,1,0-18.5,1.515A9.314,9.314,0,0,1,68.674,12.757Z" fill="#bf8256"></path><path d="M61.352,21.443c2-1.731,2.663-5.725,2.663-5.725s4.659,3.328,13.312,4.659v2.114a9.315,9.315,0,1,0-17.24.181A1.64,1.64,0,0,1,61.352,21.443Z" fill="none" stroke="#000000" stroke-linecap="round" stroke-linejoin="round"></path><path d="M56.612,77.3h.665a3.976,3.976,0,0,1,1.995.534V55.994H41.984V77.833a3.967,3.967,0,0,1,1.995-.535h.665a3.986,3.986,0,0,1,3.391,1.889l.459-15.131a2.135,2.135,0,0,1,4.268,0l.459,15.132A3.984,3.984,0,0,1,56.612,77.3Z" fill="#6a7784"></path><path d="M48.369,67.977l.125-3.921a2.135,2.135,0,0,1,4.268,0l.125,3.921h6.385V55.994H41.984V67.977Z" fill="#6a7784"></path><path d="M56.612,77.3h.665a3.976,3.976,0,0,1,1.995.534V55.994H41.984V77.833a3.967,3.967,0,0,1,1.995-.535h.665a3.986,3.986,0,0,1,3.391,1.889l.459-15.131a2.135,2.135,0,0,1,4.268,0l.459,15.132A3.984,3.984,0,0,1,56.612,77.3Z" fill="none" stroke="#000000" stroke-linecap="round" stroke-linejoin="round"></path><path d="M50.628,32.027a13.972,13.972,0,0,0-13.963,13.98v2a6.667,6.667,0,0,0,5.319,6.523v10.12h4.339a4.819,4.819,0,0,0,4.309-2.663,4.8,4.8,0,0,0,4.3,2.663h4.343V54.528a6.667,6.667,0,0,0,5.319-6.523v-2A13.971,13.971,0,0,0,50.628,32.027Z" fill="#6a7784"></path><path d="M50.628,32.027a13.972,13.972,0,0,0-13.963,13.98v2a6.652,6.652,0,0,0,.059.887,13.961,13.961,0,0,1,27.808,0,6.652,6.652,0,0,0,.059-.887v-2A13.971,13.971,0,0,0,50.628,32.027Z" fill="#8292a2"></path><path d="M50.628,32.027a13.972,13.972,0,0,0-13.963,13.98v2a6.666,6.666,0,0,0,5.319,6.523v10.12h4.339a4.819,4.819,0,0,0,4.309-2.663,4.8,4.8,0,0,0,4.3,2.663h4.343V54.528a6.667,6.667,0,0,0,5.319-6.523v-2A13.971,13.971,0,0,0,50.628,32.027Z" fill="none" stroke="#000000" stroke-linecap="round" stroke-linejoin="round"></path><path d="M50.628,48.67l5.53-15.5a13.983,13.983,0,0,0-11.06,0Z" fill="#ffffff" stroke="#000000" stroke-linecap="round" stroke-linejoin="round"></path><path d="M54.502 37.807L50.628 35.202 46.753 37.807" fill="none" stroke="#000000" stroke-linecap="round" stroke-linejoin="round"></path><path d="M59.581,81.292a1.332,1.332,0,0,0,1.152-2,3.987,3.987,0,0,0-3.456-2h-.665a3.987,3.987,0,0,0-3.456,2,1.331,1.331,0,0,0,1.152,2Z" fill="#bf8256" stroke="#000000" stroke-linecap="round" stroke-linejoin="round"></path><path d="M46.948,81.292a1.332,1.332,0,0,0,1.152-2,3.987,3.987,0,0,0-3.456-2h-.665a3.987,3.987,0,0,0-3.456,2,1.331,1.331,0,0,0,1.152,2Z" fill="#bf8256" stroke="#000000" stroke-linecap="round" stroke-linejoin="round"></path><path d="M50.628 35.202L48.351 42.287 50.628 48.67 52.905 42.287 50.628 35.202z" fill="#ff6242" stroke="#000000" stroke-linecap="round" stroke-linejoin="round"></path><path d="M50.628 54.662L50.628 61.995" fill="none" stroke="#000000" stroke-linecap="round" stroke-linejoin="round"></path><path d="M50.628 48.67L50.628 49.337" fill="none" stroke="#000000" stroke-linecap="round" stroke-linejoin="round"></path><path d="M50.628 48.67L57.942 40.016 56.612 37.353 59.272 37.353 58.481 34.449" fill="none" stroke="#000000" stroke-linecap="round" stroke-linejoin="round"></path><path d="M42.775 34.449L41.984 37.353 44.644 37.353 43.314 40.016 50.628 48.67" fill="none" stroke="#000000" stroke-linecap="round" stroke-linejoin="round"></path><path d="M47.968,54.662H43.314a6.686,6.686,0,0,1-1.329-.133" fill="none" stroke="#000000" stroke-linecap="round" stroke-linejoin="round"></path><path d="M41.984,42.679v5.326a1.332,1.332,0,0,0,1.33,1.331h4.654" fill="none" stroke="#000000" stroke-linecap="round" stroke-linejoin="round"></path><path d="M57.942,49.336a1.329,1.329,0,0,0,1.147-.658A2.328,2.328,0,0,0,55.5,46.7l-2.875,2.637Z" fill="#ffda8f" stroke="#000000" stroke-linecap="round" stroke-linejoin="round"></path><path d="M59.272,42.679v5.326a1.332,1.332,0,0,1-1.33,1.331H47.968a2.663,2.663,0,0,0,0,5.326h9.974a6.66,6.66,0,0,0,1.333-.134" fill="none" stroke="#000000" stroke-linecap="round" stroke-linejoin="round"></path><path d="M44.976,49.669a2.33,2.33,0,0,0,0,4.66H47.3v-4.66Z" fill="#ffda8f" stroke="#000000" stroke-linecap="round" stroke-linejoin="round"></path><path d="M53.526 32.33L50.609 35.211 47.724 32.33 47.73 28.86 53.532 28.86 53.526 32.33z" fill="#ffda8f" stroke="#000000" stroke-linecap="round" stroke-linejoin="round"></path><path d="M59.953,23.033a1.641,1.641,0,0,0-1.332-1.6V20.369a7.993,7.993,0,0,0-15.986,0v1.067a1.631,1.631,0,0,0,.168,3.229,7.993,7.993,0,0,0,15.65,0A1.648,1.648,0,0,0,59.953,23.033Z" fill="#ffda8f" stroke="#000000" stroke-linecap="round" stroke-linejoin="round"></path><path d="M45.299 24.033 A0.999 0.999 0 1 0 47.297 24.033 A0.999 0.999 0 1 0 45.299 24.033 Z" fill="#ffbe3d"></path><path d="M53.958 24.033 A0.999 0.999 0 1 0 55.956 24.033 A0.999 0.999 0 1 0 53.958 24.033 Z" fill="#ffbe3d"></path><path d="M54.229,21.7a1.135,1.135,0,0,0-1.6,0" fill="none" stroke="#000000" stroke-linecap="round" stroke-linejoin="round"></path><path d="M47.026,21.7a1.136,1.136,0,0,1,1.6,0" fill="none" stroke="#000000" stroke-linecap="round" stroke-linejoin="round"></path><path d="M52.626,26.364a3.33,3.33,0,0,1-4,0" fill="none" stroke="#000000" stroke-linecap="round" stroke-linejoin="round"></path><path d="M60.238,18.976A1.62,1.62,0,0,1,58.621,20.5h0c-1.344,0-2.085-2.109-2.427-3.49a.585.585,0,0,0-1-.255,10.681,10.681,0,0,1-2.745,2.176.333.333,0,0,1-.491-.294V17.228a.334.334,0,0,0-.548-.255,35.436,35.436,0,0,1-4.878,3.573.823.823,0,0,1-1.235-.71,6.889,6.889,0,0,1-2.664.666v.666a1.464,1.464,0,0,1-1.464-1.42c-.145-4.713,2.455-9.237,10.123-9.237l-.313-.94a.7.7,0,0,1,.817-.9,7.08,7.08,0,0,1,4.825,3.835s2-.666,3.33,4A7.32,7.32,0,0,1,60.238,18.976Z" fill="#6d4a31"></path><path d="M41.24,18.084c1.4-2.553,5.074-4.376,9.388-4.376,4.581,0,8.442,2.056,9.621,4.859a7.227,7.227,0,0,0-.3-2.061c-1.332-4.663-3.33-4-3.33-4A7.08,7.08,0,0,0,51.8,8.674a.7.7,0,0,0-.817.9l.313.94C44.537,10.511,41.716,14.024,41.24,18.084Z" fill="#dea47a"></path><path d="M60.238,18.976A1.62,1.62,0,0,1,58.621,20.5h0c-1.344,0-2.085-2.109-2.427-3.49a.585.585,0,0,0-1-.255,10.681,10.681,0,0,1-2.745,2.176.333.333,0,0,1-.491-.294V17.228a.334.334,0,0,0-.548-.255,35.436,35.436,0,0,1-4.878,3.573.823.823,0,0,1-1.235-.71,6.889,6.889,0,0,1-2.664.666v.666a1.464,1.464,0,0,1-1.464-1.42c-.145-4.713,2.455-9.237,10.123-9.237l-.313-.94a.7.7,0,0,1,.817-.9,7.08,7.08,0,0,1,4.825,3.835s2-.666,3.33,4A7.32,7.32,0,0,1,60.238,18.976Z" fill="none" stroke="#000000" stroke-linecap="round" stroke-linejoin="round"></path><path d="M74.577,21.542a1.14,1.14,0,0,0-1.61,0" fill="none" stroke="#000000" stroke-linecap="round" stroke-linejoin="round"></path><path d="M67.343,21.542a1.14,1.14,0,0,1,1.61,0" fill="none" stroke="#000000" stroke-linecap="round" stroke-linejoin="round"></path></svg>