<svg xmlns="http://www.w3.org/2000/svg" version="1.1" xmlns:xlink="http://www.w3.org/1999/xlink" xmlns:svgjs="http://svgjs.com/svgjs" viewBox="0 0 30 30" width="30" height="30"><g transform="matrix(1.25,0,0,1.25,0,0)"><path d="M0.75 23.25L0.75 0.75" fill="none" stroke="#000000" stroke-linecap="round" stroke-linejoin="round" stroke-width="1.5"></path><path d="M.75,20.293l3.154-.97a9.61,9.61,0,0,1,7.864,1,9.615,9.615,0,0,0,7.679,1.056l2.987-.853a1.126,1.126,0,0,0,.816-1.082V3.637a1.126,1.126,0,0,0-1.434-1.082l-2.369.677a9.615,9.615,0,0,1-7.679-1.056,9.61,9.61,0,0,0-7.864-1L.75,2.145" fill="none" stroke="#000000" stroke-linecap="round" stroke-linejoin="round" stroke-width="1.5"></path><path d="M14.25,16.5H13.5A1.5,1.5,0,0,1,12,15V11.25a.75.75,0,0,0-.75-.75H10.5" fill="none" stroke="#000000" stroke-linecap="round" stroke-linejoin="round" stroke-width="1.5"></path><path d="M11.625 6.75L11.625 6.75" fill="none" stroke="#000000" stroke-linecap="round" stroke-linejoin="round" stroke-width="1.5"></path><path d="M11.625,6.75A.375.375,0,1,0,12,7.125a.375.375,0,0,0-.375-.375" fill="none" stroke="#000000" stroke-linecap="round" stroke-linejoin="round" stroke-width="1.5"></path></g></svg>