<svg width="16" height="16" viewBox="0 0 16 16" fill="none" xmlns="http://www.w3.org/2000/svg">
<path fill-rule="evenodd" clip-rule="evenodd" d="M9.36333 5.32534C10.7273 6.26667 12.5 8.53334 12.5 10.5753C12.5 12.6467 10.2593 14.3253 8 14.3253C5.74067 14.3253 3.5 12.6467 3.5 10.5753C3.5 8.53334 5.27267 6.26667 6.63667 5.32534L5.6 2.854C5.51559 2.70664 5.49759 2.53041 5.55045 2.36902C5.60332 2.20763 5.7221 2.0762 5.87733 2.00734C7.25516 1.55501 8.74151 1.55501 10.1193 2.00734C10.2752 2.07556 10.3947 2.20671 10.4482 2.36817C10.5017 2.52962 10.4842 2.70621 10.4 2.854L9.36333 5.32534Z" stroke="white" stroke-linecap="round" stroke-linejoin="round"/>
<path d="M6.63666 5.32532H9.36332" stroke="white" stroke-linecap="round" stroke-linejoin="round"/>
<path d="M3 13.8253C1 13.8253 0.5 11.8253 0.5 10.416C0.559806 8.73864 1.45589 7.20278 2.88667 6.32532L2.044 5.10998C1.93815 4.95714 1.92585 4.75819 2.01206 4.59347C2.09827 4.42875 2.26875 4.32546 2.45467 4.32532H4" stroke="white" stroke-linecap="round" stroke-linejoin="round"/>
<path d="M6.886 11.5547C7.17895 11.9397 7.64125 12.1577 8.12467 12.1387C8.884 12.1387 9.5 11.6767 9.5 11.1067C9.5 10.5367 8.884 10.076 8.12467 10.076C7.36533 10.076 6.75 9.61403 6.75 9.04403C6.75 8.47403 7.366 8.01269 8.12467 8.01269C8.60806 7.9931 9.07054 8.2109 9.36333 8.59603" stroke="white" stroke-linecap="round" stroke-linejoin="round"/>
<path d="M8.12463 12.1387V12.8253" stroke="white" stroke-linecap="round" stroke-linejoin="round"/>
<path d="M8.12463 7.32532V8.01265" stroke="white" stroke-linecap="round" stroke-linejoin="round"/>
<path d="M13 13.8253C15 13.8253 15.5 11.8253 15.5 10.416C15.4402 8.73864 14.5441 7.20278 13.1133 6.32532L13.956 5.10998C14.0618 4.95714 14.0742 4.75819 13.9879 4.59347C13.9017 4.42875 13.7312 4.32546 13.5453 4.32532H12" stroke="white" stroke-linecap="round" stroke-linejoin="round"/>
</svg>
