<svg width="16" height="16" viewBox="0 0 16 16" fill="none" xmlns="http://www.w3.org/2000/svg">
<path fill-rule="evenodd" clip-rule="evenodd" d="M11.5 12.3333C12.0523 12.3333 12.5 11.8856 12.5 11.3333C12.5 10.781 12.0523 10.3333 11.5 10.3333C10.9477 10.3333 10.5 10.781 10.5 11.3333C10.5 11.8856 10.9477 12.3333 11.5 12.3333Z" stroke="white" stroke-linecap="round" stroke-linejoin="round"/>
<path fill-rule="evenodd" clip-rule="evenodd" d="M3.5 12.3333C4.05228 12.3333 4.5 11.8856 4.5 11.3333C4.5 10.781 4.05228 10.3333 3.5 10.3333C2.94772 10.3333 2.5 10.781 2.5 11.3333C2.5 11.8856 2.94772 12.3333 3.5 12.3333Z" stroke="white" stroke-linecap="round" stroke-linejoin="round"/>
<path d="M10.5 11.3333H4.5" stroke="white" stroke-linecap="round" stroke-linejoin="round"/>
<path d="M2.5 11.3333H1.5C0.947715 11.3333 0.5 10.8856 0.5 10.3333V9.33331C0.5 8.22874 1.39543 7.33331 2.5 7.33331L3.72333 4.88598C3.8928 4.54716 4.23917 4.3332 4.618 4.33331H9.88467C10.2635 4.3332 10.6099 4.54716 10.7793 4.88598L12 7.33331H13.5C14.6046 7.33331 15.5 8.22874 15.5 9.33331V10.3333C15.5 10.8856 15.0523 11.3333 14.5 11.3333H12.5" stroke="white" stroke-linecap="round" stroke-linejoin="round"/>
<path d="M12 7.33331H2.5" stroke="white" stroke-linecap="round" stroke-linejoin="round"/>
</svg>
