<svg xmlns="http://www.w3.org/2000/svg" viewBox="0 0 66.1 66.1"><path fill="#FFF" d="M0 0h66.1v66.1H0z"/><path fill="#FFFDFD" d="M3.8 3.9c.1-.3.3-.1.5-.1h57.3c.5 0 .6.1.6.6v57.4c0 .5-.1.6-.6.6H4.3c-.2 0-.5.3-.5-.2h.1c.1-.2.1-.2.2-.2h31.1c.5 0 .5-.2.5-.6V48.8c0-.8 0-.8-.7-.5-5.2 1.9-10.3 3.8-15.5 5.7-.9.3-1.9.5-2.9.2-2.4-.5-3.9-2.5-3.9-5.1V33.5v-29c0-.5-.1-.7-.6-.6H3.8zM62 33V4.6c0-.6-.1-.7-.7-.7H22.1c-.5 0-.7.1-.7.7 0 6.3.1 12.7 0 19 0 1.9 1.5 3.1 3.4 2.4 4.2-1.6 8.5-3.1 12.8-4.7 1.1-.4 2.1-.5 3.2-.2 2.3.6 3.6 2.5 3.6 5v35.3c0 .5.1.7.7.7h16.3c.6 0 .7-.2.7-.7-.1-9.5-.1-19-.1-28.4zm-26.3 1.7v-3.5c0-.8-.3-1-1-.7-4.2 1.5-8.4 3.1-12.6 4.6-.4.2-.6.4-.6.9v8c0 .8.3 1 1 .7 3.9-1.4 7.7-2.8 11.6-4.2 1.2-.4 1.7-1.1 1.7-2.4-.1-1.1-.1-2.2-.1-3.4z"/><path fill="#FABDB0" d="M3.8 3.9H4v58.2h-.1c-.1-19.5-.1-38.8-.1-58.2z"/><path fill="#ED253F" d="M62 33v28.4c0 .5-.1.7-.7.7H45c-.5 0-.7-.1-.7-.7V26.1c0-2.5-1.4-4.3-3.6-5-1.1-.3-2.2-.2-3.2.2-4.3 1.6-8.6 3.1-12.8 4.7-1.9.7-3.4-.5-3.4-2.4.1-6.3 0-12.7 0-19 0-.6.2-.7.7-.7h39.2c.7 0 .8.1.8.7V33z"/><path fill="#ED253F" d="M3.9 62V44.9 4.7v-.9H12c.5 0 .6.2.6.6V49c0 2.6 1.5 4.5 3.9 5.1 1 .2 1.9.1 2.9-.2 5.2-1.9 10.3-3.8 15.5-5.7.7-.3.7-.3.7.5v12.6c0 .4 0 .6-.5.6H4c0 .1 0 .1-.1.1z"/><path fill="#ED253F" d="M35.7 34.7v3.4c0 1.3-.5 2-1.7 2.4-3.9 1.4-7.7 2.8-11.6 4.2-.7.3-1 .1-1-.7v-8c0-.5.2-.7.6-.9 4.2-1.5 8.4-3 12.6-4.6.8-.3 1-.1 1 .7.1 1.2.1 2.4.1 3.5z"/></svg>