<svg xmlns="http://www.w3.org/2000/svg" viewBox="0 0 335 540"><path fill="#26353C" d="M234.8 339.9H101.2L99.5 540h137.1zM267.1 109.7h25.5c2.3 0 4.2 1.9 4.2 4.2 0 2.3-1.9 4.2-4.2 4.2h-25.5c-2.3 0-4.2-1.9-4.2-4.2-.1-2.2 1.9-4.2 4.2-4.2z"/><path opacity=".4" d="M279.4 118.2h-11.7v-8.5h13.2z"/><path fill="#F3F3F3" d="M303.3 139.5h-7.5c-2.8 0-5-2.2-5-5v-41c0-2.8 2.2-5 5-5h7.5c2.8 0 5 2.2 5 5v41c0 2.7-2.2 5-5 5z"/><path fill="#26353C" d="M257.1 196.7h25.5c2.3 0 4.2 1.9 4.2 4.2 0 2.3-1.9 4.2-4.2 4.2h-25.5c-2.3 0-4.2-1.9-4.2-4.2-.1-2.2 1.8-4.2 4.2-4.2z"/><path fill="#F3F3F3" d="M293.3 226.5h-7.5c-2.8 0-5-2.2-5-5v-41c0-2.8 2.2-5 5-5h7.5c2.8 0 5 2.2 5 5v41c0 2.7-2.2 5-5 5z"/><path opacity=".4" d="M270 205.2h-11.7v-8.5h13.2z"/><path fill="#26353C" d="M247.1 283.7h25.5c2.3 0 4.2 1.9 4.2 4.2 0 2.3-1.9 4.2-4.2 4.2h-25.5c-2.3 0-4.2-1.9-4.2-4.2-.1-2.2 1.8-4.2 4.2-4.2z"/><path fill="#F3F3F3" d="M283.3 313.5h-7.5c-2.8 0-5-2.2-5-5v-41c0-2.8 2.2-5 5-5h7.5c2.8 0 5 2.2 5 5v41c0 2.7-2.2 5-5 5z"/><path opacity=".4" d="M261.7 292.4H250v-8.5h13.1z"/><path fill="#26353C" d="M67.9 109.7H42.4c-2.3 0-4.2 1.9-4.2 4.2 0 2.3 1.9 4.2 4.2 4.2h25.5c2.3 0 4.2-1.9 4.2-4.2.1-2.2-1.9-4.2-4.2-4.2z"/><path opacity=".4" d="M52.3 118.2H40.6v-8.5h9.1z"/><path fill="#F3F3F3" d="M31.7 139.5h7.5c2.8 0 5-2.2 5-5v-41c0-2.8-2.2-5-5-5h-7.5c-2.8 0-5 2.2-5 5v41c0 2.7 2.2 5 5 5z"/><path fill="#26353C" d="M77.9 196.7H52.4c-2.3 0-4.2 1.9-4.2 4.2 0 2.3 1.9 4.2 4.2 4.2h25.5c2.3 0 4.2-1.9 4.2-4.2.1-2.2-1.8-4.2-4.2-4.2z"/><path opacity=".4" d="M61.3 205.2H49.6v-8.5h9.1z"/><path fill="#F3F3F3" d="M41.7 226.5h7.5c2.8 0 5-2.2 5-5v-41c0-2.8-2.2-5-5-5h-7.5c-2.8 0-5 2.2-5 5v41c0 2.7 2.2 5 5 5z"/><path fill="#26353C" d="M87.9 283.7H62.4c-2.3 0-4.2 1.9-4.2 4.2 0 2.3 1.9 4.2 4.2 4.2h25.5c2.3 0 4.2-1.9 4.2-4.2.1-2.2-1.8-4.2-4.2-4.2z"/><path opacity=".4" d="M69 292.2H57.3v-8.5h9.1z"/><path fill="#F3F3F3" d="M51.7 313.5h7.5c2.8 0 5-2.2 5-5v-41c0-2.8-2.2-5-5-5h-7.5c-2.8 0-5 2.2-5 5v41c0 2.7 2.2 5 5 5z"/><path opacity=".4" fill="#121B1E" d="M100.5 395.3l.7-75.4h133.6l.7 77.2"/><path opacity=".4" fill="#121B1E" d="M101.2 393.6V380h133.6l.7 120.2"/><g><path fill="#EE862B" d="M245.4 356.4H90.1c-2.8 0-5-2-5-4.5l-34-300.3c0-2.5 2.2-4.5 5-4.5h223.3c2.8 0 5 2 5 4.5l-34 300.3c0 2.5-2.2 4.5-5 4.5z"/><path fill="#EE862B" d="M235.7 382.7H99.6c-1.1 0-2-.8-2-1.8L85.3 267c0-1 .9-1.8 2-1.8h160.6c1.1 0 2 .8 2 1.8l-12.2 113.9c.1 1-.8 1.8-2 1.8z"/></g><path fill="#F3F3F3" d="M237.6 392.6H98.4c-3.2 0-5.7-2.6-5.7-5.7v-1.5c0-3.2 2.6-5.7 5.7-5.7h139.2c3.2 0 5.7 2.6 5.7 5.7v1.5c0 3.1-2.5 5.7-5.7 5.7z"/><g opacity=".5" fill="none" stroke-width="2" stroke-miterlimit="10"><path opacity=".4" stroke="#0D0D0D" d="M232.9 116l-53.1 264.1M113 302l1.8 77.6M111.9 208.8l24.9 170.8M104.8 116l53 264.1"/><path stroke="#E1E1E1" d="M110.9 302l1.9 77.6M109.9 208.8l24.9 170.8"/><path opacity=".4" stroke="#0D0D0D" d="M226.7 302l-1.8 77.6M227.7 211.8l-24.9 167.8"/><path stroke="#E1E1E1" d="M101.8 113l55 267.1M224.7 302l-1.8 77.6M225.7 208.8l-24.9 170.8M231.9 113l-53.1 267.1M222.9 379.6V540M200.8 379.6V540M178.8 379.6V540M112.8 379.6V540M134.8 379.6V540M156.8 379.6V540"/></g><path fill="#EFEAEA" d="M40 94.9h-8.8c-.9 0-1.6-.7-1.6-1.6 0-.9.7-1.6 1.6-1.6H40c.9 0 1.6.7 1.6 1.6 0 .8-.7 1.6-1.6 1.6zM49.8 182.2H41c-.9 0-1.6-.7-1.6-1.6 0-.9.7-1.6 1.6-1.6h8.8c.9 0 1.6.7 1.6 1.6.1.9-.7 1.6-1.6 1.6zM59.8 269.3H51c-.9 0-1.6-.7-1.6-1.6 0-.9.7-1.6 1.6-1.6h8.8c.9 0 1.6.7 1.6 1.6.1.8-.7 1.6-1.6 1.6zM295.2 94.9h8.8c.9 0 1.6-.7 1.6-1.6 0-.9-.7-1.6-1.6-1.6h-8.8c-.9 0-1.6.7-1.6 1.6 0 .8.7 1.6 1.6 1.6zM285.3 182.2h8.8c.9 0 1.6-.7 1.6-1.6 0-.9-.7-1.6-1.6-1.6h-8.8c-.9 0-1.6.7-1.6 1.6 0 .9.7 1.6 1.6 1.6zM275.3 269.3h8.8c.9 0 1.6-.7 1.6-1.6 0-.9-.7-1.6-1.6-1.6h-8.8c-.9 0-1.6.7-1.6 1.6 0 .8.7 1.6 1.6 1.6z"/><g><path fill="#FFF" d="M134.8 75.6h66.1v66.1h-66.1z"/><path fill="#FFFDFD" d="M138.7 79.4c.1-.3.3-.1.5-.1h57.3c.5 0 .6.1.6.6v57.4c0 .5-.1.6-.6.6h-57.3c-.2 0-.5.3-.5-.2H170.1c.5 0 .5-.2.5-.6v-12.6c0-.8 0-.8-.7-.5-5.2 1.9-10.3 3.8-15.5 5.7-.9.3-1.9.5-2.9.2-2.4-.5-3.9-2.5-3.9-5.1v-15.6-29c0-.5-.1-.7-.6-.6h-8.1c-.1-.2-.1-.2-.2-.2zm58.2 29.1V80.1c0-.6-.1-.7-.7-.7H157c-.5 0-.7.1-.7.7 0 6.3.1 12.7 0 19 0 1.9 1.5 3.1 3.4 2.4 4.2-1.6 8.5-3.1 12.8-4.7 1.1-.4 2.1-.5 3.2-.2 2.3.6 3.6 2.5 3.6 5v35.3c0 .5.1.7.7.7h16.3c.6 0 .7-.2.7-.7-.1-9.5-.1-18.9-.1-28.4zm-26.3 1.8v-3.5c0-.8-.3-1-1-.7-4.2 1.5-8.4 3.1-12.6 4.6-.4.2-.6.4-.6.9v8c0 .8.3 1 1 .7 3.9-1.4 7.7-2.8 11.6-4.2 1.2-.4 1.7-1.1 1.7-2.4-.1-1.2-.1-2.3-.1-3.4z"/><path fill="#FABDB0" d="M138.7 79.4h.2v58.2h-.1c-.1-19.4-.1-38.8-.1-58.2z"/><path fill="#ED253F" d="M196.9 108.5v28.4c0 .5-.1.7-.7.7h-16.3c-.5 0-.7-.1-.7-.7v-35.3c0-2.5-1.4-4.3-3.6-5-1.1-.3-2.2-.2-3.2.2-4.3 1.6-8.6 3.1-12.8 4.7-1.9.7-3.4-.5-3.4-2.4.1-6.3 0-12.7 0-19 0-.6.2-.7.7-.7h39.2c.6 0 .7.1.7.7.1 9.5.1 19 .1 28.4z"/><path fill="#ED253F" d="M138.9 137.5v-17.1-40.2-.9h8.1c.5 0 .6.2.6.6v44.6c0 2.6 1.5 4.5 3.9 5.1 1 .2 1.9.1 2.9-.2 5.2-1.9 10.3-3.8 15.5-5.7.7-.3.7-.3.7.5v12.6c0 .4 0 .6-.5.6H139c0 .1-.1.1-.1.1z"/><path fill="#ED253F" d="M170.6 110.3v3.4c0 1.3-.5 2-1.7 2.4-3.9 1.4-7.7 2.8-11.6 4.2-.7.3-1 .1-1-.7v-8c0-.5.2-.7.6-.9 4.2-1.5 8.4-3 12.6-4.6.8-.3 1-.1 1 .7.1 1.2.1 2.3.1 3.5z"/></g></svg>