<svg xmlns="http://www.w3.org/2000/svg" viewBox="0 0 335 540"><path fill="#26353C" d="M234.8 380.5H101.2L99.5 540h137z"/><path opacity=".4" fill="#121B1E" d="M100.5 396.9l.7-10.7h133.6l.7 11"/><path opacity=".4" fill="#121B1E" d="M101.2 393.7V380h133.6l.7 120.2"/><path fill="#26353C" d="M42.9 109.8H17.4c-2.3 0-4.2 1.9-4.2 4.2 0 2.3 1.9 4.2 4.2 4.2h25.5c2.3 0 4.2-1.9 4.2-4.2 0-2.3-1.9-4.2-4.2-4.2z"/><path opacity=".4" d="M27.3 118.3H15.6v-8.5h9.1z"/><path fill="#F3F3F3" d="M6.6 139.6h7.5c2.8 0 5-2.2 5-5v-41c0-2.8-2.2-5-5-5H6.6c-2.8 0-5 2.2-5 5v41c0 2.7 2.3 5 5 5z"/><path fill="#EFEAEA" d="M14.9 94.9H6.1c-.9 0-1.6-.7-1.6-1.6 0-.9.7-1.6 1.6-1.6h8.8c.9 0 1.6.7 1.6 1.6.1.9-.7 1.6-1.6 1.6z"/><path fill="#26353C" d="M62.9 186.8H37.4c-2.3 0-4.2 1.9-4.2 4.2 0 2.3 1.9 4.2 4.2 4.2h25.5c2.3 0 4.2-1.9 4.2-4.2.1-2.3-1.9-4.2-4.2-4.2z"/><path opacity=".4" d="M46.3 195.3H34.6v-8.5h9.1z"/><path fill="#F3F3F3" d="M26.7 216.6h7.5c2.8 0 5-2.2 5-5v-41c0-2.8-2.2-5-5-5h-7.5c-2.8 0-5 2.2-5 5v41c0 2.7 2.2 5 5 5z"/><path fill="#EFEAEA" d="M34.8 172.3H26c-.9 0-1.6-.7-1.6-1.6 0-.9.7-1.6 1.6-1.6h8.8c.9 0 1.6.7 1.6 1.6.1.8-.7 1.6-1.6 1.6z"/><path fill="#26353C" d="M42.9 253.8H17.4c-2.3 0-4.2 1.9-4.2 4.3 0 2.3 1.9 4.2 4.2 4.2h25.5c2.3 0 4.2-1.9 4.2-4.2 0-2.4-1.9-4.3-4.2-4.3z"/><path opacity=".4" d="M24 262.3H12.3v-8.5h9.1z"/><path fill="#F3F3F3" d="M6.6 283.5h7.5c2.8 0 5-2.2 5-5v-41c0-2.8-2.2-5-5-5H6.6c-2.7 0-5 2.2-5 5v41c0 2.8 2.3 5 5 5z"/><path fill="#EFEAEA" d="M14.8 239.3H6c-.9 0-1.6-.7-1.6-1.6 0-.9.7-1.6 1.6-1.6h8.8c.9 0 1.6.7 1.6 1.6 0 .9-.7 1.6-1.6 1.6z"/><g><path fill="#26353C" d="M292.1 109.8h25.5c2.3 0 4.2 1.9 4.2 4.2 0 2.3-1.9 4.2-4.2 4.2h-25.5c-2.3 0-4.2-1.9-4.2-4.2 0-2.3 1.9-4.2 4.2-4.2z"/><path opacity=".4" d="M304.5 118.3h-11.7v-8.5h13.1z"/><path fill="#F3F3F3" d="M328.4 139.6h-7.5c-2.8 0-5-2.2-5-5v-41c0-2.8 2.2-5 5-5h7.5c2.8 0 5 2.2 5 5v41c0 2.7-2.3 5-5 5z"/><path fill="#EFEAEA" d="M320.2 94.9h8.8c.9 0 1.6-.7 1.6-1.6 0-.9-.7-1.6-1.6-1.6h-8.8c-.9 0-1.6.7-1.6 1.6 0 .9.7 1.6 1.6 1.6z"/></g><g><path fill="#26353C" d="M277.1 186.8h25.5c2.3 0 4.2 1.9 4.2 4.2 0 2.3-1.9 4.2-4.2 4.2h-25.5c-2.3 0-4.2-1.9-4.2-4.2 0-2.3 1.9-4.2 4.2-4.2z"/><path fill="#F3F3F3" d="M313.4 216.6h-7.5c-2.8 0-5-2.2-5-5v-41c0-2.8 2.2-5 5-5h7.5c2.8 0 5 2.2 5 5v41c0 2.7-2.3 5-5 5z"/><path opacity=".4" d="M290.1 195.3h-11.7v-8.5h13.1z"/><path fill="#EFEAEA" d="M305.3 172.3h8.8c.9 0 1.6-.7 1.6-1.6 0-.9-.7-1.6-1.6-1.6h-8.8c-.9 0-1.6.7-1.6 1.6 0 .8.7 1.6 1.6 1.6z"/></g><g><path fill="#26353C" d="M292.1 253.8h25.5c2.3 0 4.2 1.9 4.2 4.3 0 2.3-1.9 4.2-4.2 4.2h-25.5c-2.3 0-4.2-1.9-4.2-4.2 0-2.4 1.9-4.3 4.2-4.3z"/><path fill="#F3F3F3" d="M328.4 283.5h-7.5c-2.8 0-5-2.2-5-5v-41c0-2.8 2.2-5 5-5h7.5c2.8 0 5 2.2 5 5v41c0 2.8-2.3 5-5 5z"/><path opacity=".4" d="M306.7 262.4H295v-8.5h13.1z"/><path fill="#EFEAEA" d="M320.4 239.3h8.8c.9 0 1.6-.7 1.6-1.6 0-.9-.7-1.6-1.6-1.6h-8.8c-.9 0-1.6.7-1.6 1.6-.1.9.7 1.6 1.6 1.6z"/></g><path fill="#F3F3F3" d="M237.6 392.7H98.4c-3.2 0-5.7-2.6-5.7-5.7v-1.5c0-3.2 2.6-5.7 5.7-5.7h139.2c3.2 0 5.7 2.6 5.7 5.7v1.5c0 3.1-2.5 5.7-5.7 5.7z"/><path fill="#212221" d="M327.2 64.8L242.8 5.5c20.8 32.3 19.9 83.9-14.4 83.9-32.9 0-57.6-31.8-59.6-34.5v-.2l-.1.1c0-.1-.1-.1-.1-.1v.2c-2 2.7-26.7 34.5-59.6 34.5-34.3 0-35.2-51.6-14.4-83.9L10.1 64.8s110.2 120.6-2.3 244.6c0 0 93 8.2 95.6 72.3l65.2-1.2 65.2 1.2c2.5-64.1 95.6-72.3 95.6-72.3-112.5-124-2.2-244.6-2.2-244.6z"/><g opacity=".5" fill="none" stroke-width="2" stroke-miterlimit="10"><path opacity=".4" stroke="#0D0D0D" d="M255.3 107.9l-75.5 272.3M85.5 259.7l29.3 120M103.5 196.5l33.3 183.2M84.2 107.9l73.6 272.3"/><path stroke="#E1E1E1" d="M84.2 262.3l28.6 117.4M101.2 196.5l33.6 183.2"/><path opacity=".4" stroke="#0D0D0D" d="M251.2 262.3l-26.3 117.4M238.1 189.1l-35.3 190.6"/><path stroke="#E1E1E1" d="M84.2 107.9l72.6 272.3M251.2 254.4l-28.3 125.3M236.8 186.8l-36 192.9M254.2 105.2l-75.4 275M222.9 379.7V540M200.8 379.7V540M178.8 379.7V540M112.8 379.7V540M134.8 379.7V540M156.8 379.7V540"/></g><g><path fill="#FFF" d="M134.8 121.7h66.1v66.1h-66.1z"/><path fill="#FFFDFD" d="M138.5 125.6c.1-.3.3-.1.5-.1h57.3c.5 0 .6.1.6.6v57.4c0 .5-.1.6-.6.6H139c-.2 0-.5.3-.5-.2H169.9c.5 0 .5-.2.5-.6v-12.6c0-.8 0-.8-.7-.5-5.2 1.9-10.3 3.8-15.5 5.7-.9.3-1.9.5-2.9.2-2.4-.5-3.9-2.5-3.9-5.1v-15.6-29c0-.5-.1-.7-.6-.6h-8.1c-.1-.2-.1-.2-.2-.2zm58.2 29.1v-28.4c0-.6-.1-.7-.7-.7h-39.2c-.5 0-.7.1-.7.7 0 6.3.1 12.7 0 19 0 1.9 1.5 3.1 3.4 2.4 4.2-1.6 8.5-3.1 12.8-4.7 1.1-.4 2.1-.5 3.2-.2 2.3.6 3.6 2.5 3.6 5v35.3c0 .5.1.7.7.7h16.3c.6 0 .7-.2.7-.7-.1-9.5-.1-18.9-.1-28.4zm-26.3 1.8V153c0-.8-.3-1-1-.7-4.2 1.5-8.4 3.1-12.6 4.6-.4.2-.6.4-.6.9v8c0 .8.3 1 1 .7 3.9-1.4 7.7-2.8 11.6-4.2 1.2-.4 1.7-1.1 1.7-2.4-.1-1.2-.1-2.3-.1-3.4z"/><path fill="#FABDB0" d="M138.5 125.6h.2v58.2h-.1c-.1-19.4-.1-38.8-.1-58.2z"/><path fill="#ED253F" d="M196.7 154.7v28.4c0 .5-.1.7-.7.7h-16.3c-.5 0-.7-.1-.7-.7v-35.3c0-2.5-1.4-4.3-3.6-5-1.1-.3-2.2-.2-3.2.2-4.3 1.6-8.6 3.1-12.8 4.7-1.9.7-3.4-.5-3.4-2.4.1-6.3 0-12.7 0-19 0-.6.2-.7.7-.7h39.2c.6 0 .7.1.7.7.1 9.5.1 18.9.1 28.4z"/><path fill="#ED253F" d="M138.7 183.7v-17.1-40.2-.9h8.1c.5 0 .6.2.6.6v44.6c0 2.6 1.5 4.5 3.9 5.1 1 .2 1.9.1 2.9-.2 5.2-1.9 10.3-3.8 15.5-5.7.7-.3.7-.3.7.5V183c0 .4 0 .6-.5.6h-31.1c0 .1-.1.1-.1.1z"/><path fill="#ED253F" d="M170.4 156.5v3.4c0 1.3-.5 2-1.7 2.4-3.9 1.4-7.7 2.8-11.6 4.2-.7.3-1 .1-1-.7v-8c0-.5.2-.7.6-.9 4.2-1.5 8.4-3 12.6-4.6.8-.3 1-.1 1 .7.1 1.1.1 2.3.1 3.5z"/></g></svg>