<svg xmlns="http://www.w3.org/2000/svg" version="1.1" xmlns:xlink="http://www.w3.org/1999/xlink" xmlns:svgjs="http://svgjs.com/svgjs" viewBox="0 0 16 16" width="16" height="16"><g transform="matrix(0.6666666666666666,0,0,0.6666666666666666,0,0)"><path d="M4.500 12.001 A7.500 7.500 0 1 0 19.500 12.001 A7.500 7.500 0 1 0 4.500 12.001 Z" fill="none" stroke="#ffffff" stroke-linecap="round" stroke-linejoin="round" stroke-width="1.5"></path><path d="M1.5 12.001L4.5 12.001" fill="none" stroke="#ffffff" stroke-linecap="round" stroke-linejoin="round" stroke-width="1.5"></path><path d="M19.5 12.001L22.5 12.001" fill="none" stroke="#ffffff" stroke-linecap="round" stroke-linejoin="round" stroke-width="1.5"></path><path d="M12 1.501L12 4.501" fill="none" stroke="#ffffff" stroke-linecap="round" stroke-linejoin="round" stroke-width="1.5"></path><path d="M12 19.501L12 22.501" fill="none" stroke="#ffffff" stroke-linecap="round" stroke-linejoin="round" stroke-width="1.5"></path><path d="M4.575 4.576L6.698 6.698" fill="none" stroke="#ffffff" stroke-linecap="round" stroke-linejoin="round" stroke-width="1.5"></path><path d="M17.303 17.303L19.425 19.426" fill="none" stroke="#ffffff" stroke-linecap="round" stroke-linejoin="round" stroke-width="1.5"></path><path d="M19.425 4.576L17.303 6.698" fill="none" stroke="#ffffff" stroke-linecap="round" stroke-linejoin="round" stroke-width="1.5"></path><path d="M6.698 17.303L4.575 19.426" fill="none" stroke="#ffffff" stroke-linecap="round" stroke-linejoin="round" stroke-width="1.5"></path><path d="M9.750 12.001 A2.250 2.250 0 1 0 14.250 12.001 A2.250 2.250 0 1 0 9.750 12.001 Z" fill="none" stroke="#ffffff" stroke-linecap="round" stroke-linejoin="round" stroke-width="1.5"></path></g></svg>